<?xml version="1.0" encoding="utf-8"?>
<!-- Generator: Adobe Illustrator 16.0.0, SVG Export Plug-In . SVG Version: 6.00 Build 0)  -->
<!DOCTYPE svg PUBLIC "-//W3C//DTD SVG 1.1//EN" "http://www.w3.org/Graphics/SVG/1.1/DTD/svg11.dtd">
<svg version="1.1" id="Layer_1" xmlns="http://www.w3.org/2000/svg" xmlns:xlink="http://www.w3.org/1999/xlink" x="0px" y="0px"
	 width="60px" height="60px" viewBox="0 0 60 60" enable-background="new 0 0 60 60" xml:space="preserve">
<path fill="#F0EEDC" d="M46.799,47.592l3.809,3.808l0.762-0.76l-3.81-3.809L46.799,47.592z M10.692,12.043L8.088,9.856l-1.747,2.083
	l2.605,2.186L10.692,12.043z M47.842,46.772l4.022,3.377l1.745-2.083l-4.023-3.376L47.842,46.772z M49.502,44.437l4.457,3.125
	l0.714-1.018l-4.459-3.124L49.502,44.437z M51.061,42.529l4.498,2.597l0.303-0.523l-4.496-2.596L51.061,42.529z M15.932,21.542
	l-4.497-2.594l-0.301,0.52l4.495,2.599L15.932,21.542z M10.119,24.577l1.986,0.722l1.157-3.186l-1.023-0.374l0.221-0.476
	l-7.015-3.271l-0.436,0.931l1.85,0.862L5.738,22.87l-0.756-0.203l-0.318,1.188l5.27,1.413L10.119,24.577z M53.298,36.69
	l-1.224-0.447l-1.089,2.992l-0.877-0.411l-0.435,0.934l7.016,3.271l0.434-0.93l0.196-0.339l1.158-3.185l0.042-0.286l0.317-1.19
	l-5.271-1.411L53.298,36.69z M59.69,29.378l0.06-0.006l-0.06-0.677v-0.326h-0.03l-0.254-2.917l-0.091-0.179l-0.131-0.732
	l0.087-0.023l-0.721-2.679l0.068-0.024l-0.274-0.755L58.087,20.1l-0.084,0.021l-0.543-1.493l0.002-0.001l-0.013-0.024l-0.27-0.746
	l-0.065,0.021L56.4,16.354l0.009-0.003l-0.043-0.073l-0.011-0.027l-0.002,0l-0.801-1.383l0.069-0.049l-0.556-0.797l-0.057-0.096
	l-0.008,0.006l-1.99-2.848l-0.071,0.049l-0.458-0.543l-7.028,5.898l0.514,0.61l2.995-2.514l1.414,2.019l-3.285,1.897l1.4,2.424
	l2.647-1.53l0.261,0.564l-1.302,0.476l0.599,1.646l-3.32,0.89l1.182,4.418l2.396-0.641l4.556-0.805l0.211,2.424l-1.942-0.001v2.245
	l-0.271-0.024l-0.258,2.93l0.297,0.024l-0.27,1.523l5.799,1.02l0.324-1.84l0.049-0.188l0.214-2.416h0.027v-0.319l0.016-0.19
	l-0.016-0.002V29.378z M4.818,35.98l-0.44-1.909l-3.859,0.657l1.351,5.173l1.408-0.377l-0.795-2.987L4.818,35.98z M8.602,50.65
	l0.732,0.733l3.043-3.046l-0.731-0.732L8.602,50.65z M21.293,37.824l-1.652,1.392l0.181,0.211l-1.085,1.088l-0.303-0.254
	l-6.075,7.243l3.446,2.895l2.933-3.497l0.032,0.022l0.264-0.377l2.849-3.398l-2.351-1.969l2.559-2.561L21.293,37.824z M44.96,8.639
	l-3.685,4.392l3.447,2.892l2.476-2.952l0.267,0.267l3.889-3.888l-0.605-0.607l0.053-0.062l-3.448-2.895L47.3,5.85l-0.708-0.497
	l-2.08,2.968L44.96,8.639z M16.728,52.156l-1.955,3.388l0.692,0.397l1.953-3.383L16.728,52.156z M39.663,14.016l5.517-9.557
	l-0.691-0.397l-5.517,9.556L39.663,14.016z M23.173,53.314l1.733-4.759l-2.97-1.079l-0.883,2.429l-1.694-0.79l-2.373,5.095
	l2.798,1.309l1.37-2.938L23.173,53.314z M20.873,58.331l2.828,0.757l1.112-4.154l-2.829-0.758L20.873,58.331z M30.157,9.462
	l3.206,0.28l0.399-4.571l1.289,0.227l-0.136,0.51l2.827,0.758l0.082-0.312l1.256,0.458l-0.321,0.693l2.8,1.305l2.374-5.095
	l-2.315-1.081l0.007-0.022l-0.271-0.099L41.135,2.41l-0.011,0.02l-2.047-0.747l0.003-0.014l-0.145-0.038l-0.28-0.104l-0.011,0.025
	l-1.842-0.496l0.006-0.033l-0.392-0.069L36.254,0.91L36.25,0.925l-2.084-0.367l0.002-0.027L33.86,0.504l-0.396-0.069L33.46,0.469
	L30.964,0.25l-0.002,0.027h-2.25v8.656h1.493L30.157,9.462z M30.854,51.543l0.125,1.415h-1.396l0.079-0.917l-1.821-0.158
	l0.219-1.241l-3.344-0.589l-0.8,4.542l2.259,0.399l-0.391,4.477l3.204,0.279l0.002-0.024h2.248v-4.795l1.909-0.169L32.85,51.37
	L30.854,51.543z M28.944,3.695l-0.232-3.417l-2.324,0.201l0.298,3.391L28.944,3.695z M26.417,7.842l-1.265-7.173l-0.674,0.118
	l1.265,7.174L26.417,7.842z M33.95,54.527l0.848,4.802l0.673-0.116l-0.846-4.806L33.95,54.527z M11.82,10.428l1.37-1.149l1.5,2.144
	l2.3-1.612l0.145,0.251l1.996-1.153L18.717,8.19l0.996-0.462l0.938,2.579l2.226-0.813l0.216,0.802l2.992-0.8L23.78,0.89
	l-2.038,0.548l-0.023-0.061l-0.687,0.25l-0.243,0.065l0.006,0.021l-2.147,0.782l-0.001-0.003l-0.058,0.024l-0.681,0.249l0.021,0.06
	l-1.737,0.809l-0.075,0.051l-1.626,0.937l-0.027-0.039l-2.568,1.796l-0.002-0.003l-0.026,0.023l-0.466,0.326l0.028,0.041
	L9.856,8.087L11.82,10.428z M44.731,45.525l-2.04,1.709l2.827,3.368l-1.652,1.154l-0.203-0.352l-1.745,1.01l-2.555-5.479
	l0.145-0.059l3.059-2.142l-3.208-4.587l1.447,1.451l0.398-0.398l1.513,1.271l1.747-2.083l-1.695-1.424l0.355-0.512l-1.788-1.254
	l0.2-0.174l0.302-0.522l0.137-0.33l0.574,0.21l0.789-2.164l2.391,0.643l0.291-1.08l0.211,0.037l0.325-1.841l-1.933-0.34h0.047V30.69
	l0.897-0.078l-0.343-3.919l-0.767,0.066l-1.193-3.284l1.709-1.197l-2.614-3.733l-0.731,0.511l-0.721-0.724l-1.227,1.23l-1.106-0.93
	l1.662-2.374l-0.859-0.605l-1.61,2.302L37.4,17.647l-0.886,1.056l-1.774-0.83l0.209-0.789l1.241,0.453l1.73-4.758l-2.967-1.08
	l-0.282,0.774l-1.414-0.378l-0.844,3.152L30.9,14.98l-0.042,0.244h-1.167l-0.125-1.441l-1.999,0.175l0.309,3.532l-0.277,0.049
	l-0.395-1.086l-1.754,0.638l-1.961-4.208l-2.454,1.145l0.311,0.666l-1.558,1.09l-0.89-1.06l-1.868,1.568l-2.938-2.939l-0.761,0.761
	l2.368,2.368L14.24,18.22l-2.993-2.096l-0.713,1.019l4.46,3.124l0.471-0.67l2.628,2.207l1.633-1.948l3.356,3.999l-0.007,0.008
	l0.079,0.078l0.397,0.474l0.042-0.034l0.557,0.557l0.117,0.169l0.031-0.021l0.216,0.216l-0.062,0.075l-1.862-1.304l-0.657,0.939
	l-0.994-0.572l-0.223,0.39l-1.203-0.439l-1.137,3.124l-1.003-0.088l-0.083,0.942h-0.851l-0.001,2.898l-6.194,1.658l-0.274-3.145
	l-2.64,0.231v-1.644H6.024l0.143-1.613l4.95,0.873l0.327-1.841l-5.8-1.022l-0.285,1.61L0.506,25.95L0.25,28.877l2.766,0.243v2.52
	h3.176l0.208,2.403l3.294-0.291l0.34,1.271l-2.062,0.75l0.948,2.604L4.373,40.5l1.108,2.375l1.777-0.827l0.445,0.771l-1.02,0.714
	L9.106,47l-2.147,1.802l0.513,0.61l6.185-5.194l-1.58-2.26l4.265-2.463l-1.091-1.889l1.237-0.451l0.226,0.481l4.241-1.979
	l0.617,0.88l-2.428,2.084l0.514,0.61l2.373-2.04l0.543,0.778l2.946-2.064l-2.464,5.287l-2.912,5.039l0.693,0.401l2.393-4.15
	l1.679,0.783l-1.267,4.723l2.826,0.757l1.182-4.408l1.476,0.261l0.26-1.479l1.05,0.091l0.019-0.201h0.784v-1.867l0.348-0.03
	l0.446,2.528l0.675-0.116l-1.075-6.099l-0.016-0.179l0.218-0.058l1.839,3.945l1.101-0.514l1.22,2.111l-3.129,1.139l0.515,1.41
	l-0.853,0.229l2.308,8.605l2.988-0.801l-0.661-2.468l0.887-0.322l1.43,3.064l2.19-1.023l2.164,3.747l1.626-0.938l0.03,0.042
	l2.563-1.796l0.002,0.001l0.016-0.016l0.479-0.332l-0.027-0.043l1.57-1.322L44.731,45.525z M19.435,33.472l-0.297-1.112l1.643-0.29
	l0.165,0.698L19.435,33.472z M28.75,25.57l-2.144-3.712l1.515-0.405l0.372,2.104l0.439-0.076L28.75,25.57z M33.202,26.735
	l1.163-2.496l0.93,0.778l-2.087,1.751L33.202,26.735z M36.19,38.468l-1.974-3.423l-1.122,0.625l-0.384-1.442l0.849-0.309
	l-0.388-1.059l0.518-0.363l1.967,1.12l-0.101,0.22l-0.393,0.56l0.901,0.632l-0.137,0.169l-0.762,0.761l1.831,1.832L36.19,38.468z"/>
</svg>
