<svg xmlns="http://www.w3.org/2000/svg" width="185px" height="30px"><g><path opacity="0.75" fill="#F0EEDC" d="M23.478,23.87l1.921,1.921l0.384-0.385l-1.921-1.92L23.478,23.87z M5.267,5.946L3.954,4.843 l-0.882,1.05l1.314,1.102L5.267,5.946z M24.004,23.456l2.029,1.703l0.88-1.05l-2.029-1.702L24.004,23.456z M24.841,22.279 l2.249,1.575l0.359-0.515L25.2,21.766L24.841,22.279z M25.628,21.317l2.269,1.31l0.152-0.264l-2.269-1.309L25.628,21.317z M7.909,10.735L5.642,9.427L5.489,9.689L7.757,11L7.909,10.735z M4.978,12.266l1.001,0.364l0.584-1.606l-0.516-0.188l0.111-0.24 L2.62,8.946L2.4,9.415L3.333,9.85l-0.564,1.555l-0.382-0.103l-0.161,0.599l2.658,0.712L4.978,12.266z M26.757,18.373l-0.618-0.225 l-0.549,1.508l-0.443-0.207l-0.219,0.471l3.539,1.649l0.219-0.469l0.098-0.171l0.585-1.605l0.021-0.145l0.16-0.6l-2.659-0.712 L26.757,18.373z M29.98,14.687l0.029-0.003l-0.029-0.342v-0.164h-0.015l-0.129-1.471l-0.046-0.09l-0.066-0.369l0.044-0.012 l-0.362-1.351l0.033-0.012l-0.139-0.38l-0.13-0.483l-0.042,0.011l-0.274-0.752l0.002,0l-0.006-0.012l-0.138-0.376l-0.032,0.011 l-0.359-0.769l0.004-0.002l-0.021-0.037l-0.006-0.014l-0.001,0l-0.403-0.698l0.035-0.024l-0.281-0.402l-0.028-0.048l-0.004,0.003 l-1.004-1.436l-0.036,0.024l-0.23-0.274L22.8,8.188l0.259,0.308l1.512-1.268l0.712,1.018l-1.657,0.957l0.707,1.222l1.335-0.771 L25.8,9.938l-0.657,0.24l0.302,0.83l-1.675,0.449l0.597,2.228l1.208-0.323l2.298-0.405l0.106,1.222l-0.979-0.001v1.132 l-0.138-0.013l-0.13,1.478l0.149,0.013l-0.136,0.768l2.926,0.515l0.163-0.927l0.024-0.096l0.107-1.219h0.015v-0.16l0.008-0.098 H29.98V14.687z M2.304,18.016l-0.222-0.963l-1.946,0.332l0.681,2.608l0.71-0.19l-0.4-1.507L2.304,18.016z M4.212,25.412l0.37,0.37 l1.535-1.537l-0.369-0.368L4.212,25.412z M10.614,18.945L9.78,19.646l0.091,0.105l-0.547,0.549l-0.153-0.128l-3.063,3.651 l1.738,1.461l1.479-1.764l0.017,0.012l0.133-0.189l1.438-1.713l-1.187-0.993l1.291-1.292L10.614,18.945z M22.551,4.23l-1.859,2.214 l1.739,1.458l1.249-1.488l0.134,0.134l1.962-1.96L25.47,4.282l0.026-0.031l-1.739-1.459L23.73,2.823l-0.357-0.25l-1.05,1.497 L22.551,4.23z M8.312,26.172l-0.986,1.707l0.349,0.201l0.985-1.707L8.312,26.172z M19.879,6.94l2.782-4.818l-0.349-0.201 L19.531,6.74L19.879,6.94z M11.562,26.756l0.874-2.399l-1.497-0.545l-0.445,1.225l-0.854-0.397l-1.197,2.568l1.412,0.659 l0.69-1.481L11.562,26.756z M10.401,29.284l1.426,0.382l0.562-2.094l-1.427-0.383L10.401,29.284z M15.084,4.645L16.7,4.786 l0.202-2.305l0.65,0.114l-0.068,0.257l1.426,0.383l0.041-0.158l0.634,0.231l-0.162,0.349l1.412,0.658l1.197-2.568l-1.168-0.545 l0.004-0.012l-0.137-0.05l-0.11-0.052l-0.005,0.01l-1.033-0.376l0.002-0.006l-0.073-0.02L19.37,0.644l-0.004,0.013l-0.931-0.25 l0.003-0.017l-0.196-0.034l-0.083-0.023L18.157,0.34l-1.052-0.185l0.001-0.014l-0.154-0.014l-0.199-0.035L16.75,0.11L15.491,0 L15.49,0.014h-1.135v4.365h0.753L15.084,4.645z M15.437,25.862l0.062,0.714h-0.704l0.04-0.463l-0.919-0.079l0.11-0.626L12.34,25.11 l-0.403,2.29l1.14,0.201l-0.197,2.258L14.495,30l0.001-0.014h1.134V27.57l0.963-0.085l-0.15-1.71L15.437,25.862z M14.472,1.737 l-0.116-1.723l-1.173,0.101l0.15,1.71L14.472,1.737z M13.198,3.828L12.56,0.211l-0.34,0.06l0.639,3.617L13.198,3.828z M16.997,27.367l0.428,2.422l0.34-0.061l-0.427-2.422L16.997,27.367z M5.836,5.132l0.69-0.58l0.757,1.081l1.16-0.812l0.072,0.126 l1.007-0.581L9.314,4.003l0.502-0.233l0.474,1.3l1.123-0.409l0.108,0.404l1.51-0.403l-1.163-4.339L10.84,0.599l-0.012-0.031 l-0.346,0.126l-0.123,0.033l0.003,0.011L9.279,1.131L9.278,1.129L9.249,1.142L8.905,1.268l0.012,0.03L8.04,1.706L8.003,1.731 l-0.82,0.473l-0.014-0.02L5.874,3.09L5.873,3.088L5.86,3.1L5.625,3.264l0.014,0.021L4.845,3.951L5.836,5.132z M22.435,22.828 l-1.027,0.861l1.425,1.698l-0.834,0.583l-0.103-0.178l-0.88,0.508l-1.288-2.762L19.8,23.51l1.544-1.08l-1.619-2.312l0.73,0.73 l0.201-0.199l0.763,0.64l0.882-1.05l-0.856-0.718l0.181-0.259l-0.902-0.631l0.101-0.088l0.152-0.264l0.069-0.166l0.289,0.105 l0.397-1.091l1.207,0.323l0.146-0.545l0.107,0.02l0.164-0.928l-0.976-0.172h0.024V15.35l0.452-0.041l-0.173-1.976l-0.386,0.034 l-0.603-1.656l0.862-0.604l-1.319-1.882L20.87,9.483l-0.364-0.365l-0.618,0.62L19.33,9.269l0.838-1.197l-0.433-0.305l-0.813,1.16 l-0.184-0.155l-0.447,0.533l-0.896-0.418l0.105-0.397l0.626,0.228l0.874-2.399l-1.497-0.544l-0.143,0.391l-0.713-0.191 l-0.427,1.589l-0.763-0.135L15.438,7.55h-0.589l-0.063-0.727l-1.007,0.088l0.155,1.781l-0.14,0.024L13.595,8.17L12.71,8.492 L11.721,6.37l-1.237,0.578l0.157,0.335L9.854,7.832L9.405,7.298L8.463,8.088l-1.48-1.481L6.598,6.991l1.194,1.194L7.056,9.061 L5.547,8.004L5.188,8.518l2.249,1.575l0.237-0.338l1.325,1.113l0.825-0.982l1.691,2.016l-0.004,0.003l0.04,0.04l0.201,0.239 l0.021-0.017l0.281,0.28l0.059,0.085l0.016-0.011l0.108,0.108l-0.031,0.038l-0.938-0.657l-0.331,0.474l-0.501-0.289l-0.113,0.197 L9.716,12.17l-0.573,1.575l-0.507-0.045l-0.042,0.475H8.165l-0.001,1.461l-3.123,0.837l-0.139-1.586L3.57,15.004v-0.829H2.912 l0.072-0.813l2.497,0.44l0.165-0.928l-2.926-0.516L2.577,13.17L0.13,12.958L0,14.434l1.395,0.122v1.271h1.603l0.105,1.211 l1.661-0.146l0.172,0.642l-1.04,0.378l0.479,1.312l-2.295,1.07l0.559,1.199l0.896-0.418l0.225,0.389l-0.514,0.36l1.222,1.747 l-1.083,0.908l0.259,0.309l3.119-2.619l-0.797-1.14l2.151-1.241l-0.55-0.953l0.623-0.227l0.114,0.242l2.139-0.998l0.312,0.443 l-1.225,1.053l0.259,0.307l1.196-1.028l0.274,0.392l1.486-1.04l-1.242,2.665l-1.469,2.543l0.35,0.201l1.207-2.092l0.846,0.395 l-0.639,2.381l1.426,0.382l0.596-2.223l0.745,0.131l0.131-0.745l0.529,0.047l0.009-0.102h0.396v-0.942l0.175-0.015l0.226,1.274 l0.34-0.06l-0.542-3.072l-0.008-0.091l0.109-0.029l0.928,1.989l0.556-0.259l0.614,1.064l-1.577,0.573l0.259,0.713l-0.43,0.115 l1.163,4.338l1.508-0.402l-0.333-1.244l0.447-0.164l0.721,1.546l1.105-0.516l1.091,1.89l0.82-0.475l0.015,0.021l1.294-0.904l0,0 l0.009-0.008l0.241-0.168l-0.015-0.021l0.792-0.666L22.435,22.828z M9.677,16.75l-0.15-0.561l0.828-0.146l0.084,0.352L9.677,16.75z M14.374,12.766l-1.081-1.872l0.765-0.204l0.188,1.061l0.221-0.039L14.374,12.766z M16.62,13.354l0.587-1.259l0.469,0.393 l-1.053,0.883L16.62,13.354z M18.128,19.269l-0.996-1.726l-0.565,0.315l-0.194-0.727l0.429-0.155l-0.195-0.535l0.261-0.183 l0.992,0.565l-0.052,0.11l-0.197,0.282l0.455,0.318l-0.069,0.086l-0.384,0.383l0.924,0.923L18.128,19.269z"/><g><path fill="none" stroke="#DDDEDF" stroke-linecap="round" stroke-linejoin="round" d="M76.672,27.473L76.671,2.092l0,0 c0,0-10.48,14.63-11.539,16.116c-1.387,1.944-2.353,1.921-3.699-0.021c-1.025-1.48-11.278-16.215-11.278-16.215l0,0v25.5"/><line fill="none" stroke="#DDDEDF" stroke-linecap="round" stroke-linejoin="round" x1="162.895" y1="2.185" x2="162.895" y2="27.261"/><line fill="none" stroke="#DDDEDF" stroke-linecap="round" stroke-linejoin="round" x1="184" y1="2.185" x2="184" y2="27.261"/><line fill="none" stroke="#DDDEDF" x1="184" y1="14.723" x2="162.752" y2="14.723"/><path fill="none" stroke="#DDDEDF" d="M77.82,14.723"/><path fill="none" stroke="#DDDEDF" stroke-width="1.0327" stroke-linecap="round" stroke-linejoin="round" d="M157.451,6.1 c-2.379-2.673-5.843-4.358-9.702-4.358c-7.169,0-12.982,5.812-12.982,12.981c0,7.17,5.813,12.98,12.982,12.98 c4.466,0,8.411-2.26,10.745-5.698"/><path fill="none" stroke="#DDDEDF" stroke-linecap="round" stroke-linejoin="round" d="M131.284,27.408l-7.609-10.613 c4.084,0,7.398-3.312,7.398-7.397c0-4.086-3.314-7.36-7.398-7.36H110.31v25.027"/><path fill="none" stroke="#DDDEDF" stroke-width="0.996" stroke-linecap="round" stroke-linejoin="round" d="M107.205,27.389 c0,0-11.997-23.675-12.176-24.027c-0.89-1.752-2.141-1.723-2.986-0.019c-0.089,0.178-12.121,24.045-12.121,24.045"/></g></g></svg>