<?xml version="1.0" encoding="utf-8"?>
<!-- Generator: Adobe Illustrator 16.0.0, SVG Export Plug-In . SVG Version: 6.00 Build 0)  -->
<!DOCTYPE svg PUBLIC "-//W3C//DTD SVG 1.1//EN" "http://www.w3.org/Graphics/SVG/1.1/DTD/svg11.dtd">
<svg version="1.1" id="Layer_1" xmlns="http://www.w3.org/2000/svg" xmlns:xlink="http://www.w3.org/1999/xlink" x="0px" y="0px"
	 width="210px" height="46px" viewBox="0 0 210 46" enable-background="new 0 0 210 46" xml:space="preserve">
<g>
	<path fill="none" stroke="#DDDEE0" stroke-linecap="round" stroke-linejoin="round" d="M94.623,36.209L94.622,9.364l0,0
		c0,0-11.085,15.473-12.205,17.044c-1.467,2.059-2.488,2.033-3.912-0.021C77.419,24.822,66.576,9.236,66.576,9.236l0,0v26.972"/>
	
		<line fill="none" stroke="#DDDEE0" stroke-linecap="round" stroke-linejoin="round" x1="185.819" y1="9.705" x2="185.819" y2="36.227"/>
	
		<line fill="none" stroke="#DDDEE0" stroke-linecap="round" stroke-linejoin="round" x1="208.141" y1="9.705" x2="208.141" y2="36.227"/>
	<path fill="#F0EEDC" d="M35.999,36.601l2.946,2.944l0.588-0.589l-2.945-2.945L35.999,36.601z M8.076,9.117l-2.013-1.69L4.711,9.038
		l2.016,1.689L8.076,9.117z M36.806,35.966l3.112,2.611l1.35-1.609l-3.113-2.609L36.806,35.966z M38.089,34.161l3.448,2.416
		l0.552-0.788l-3.449-2.414L38.089,34.161z M39.296,32.687l3.479,2.009l0.233-0.405l-3.478-2.008L39.296,32.687z M12.127,16.461
		L8.65,14.455l-0.233,0.402l3.477,2.01L12.127,16.461z M7.632,18.808l1.536,0.558l0.895-2.463l-0.792-0.289l0.172-0.368
		l-5.426-2.529l-0.337,0.72l1.43,0.667l-0.866,2.384L3.659,17.33l-0.246,0.918l4.076,1.093L7.632,18.808z M41.026,28.172
		l-0.947-0.346l-0.842,2.314l-0.679-0.318l-0.336,0.722l5.427,2.529l0.335-0.72l0.15-0.262l0.897-2.463l0.032-0.222l0.246-0.919
		l-4.077-1.092L41.026,28.172z M45.97,22.52l0.045-0.005L45.97,21.99v-0.251h-0.023l-0.197-2.255l-0.07-0.138l-0.101-0.567
		l0.067-0.017l-0.556-2.072l0.051-0.019l-0.212-0.583l-0.199-0.741l-0.065,0.016l-0.42-1.154l0.001,0l-0.009-0.019l-0.209-0.577
		l-0.051,0.018l-0.55-1.179l0.005-0.003l-0.033-0.057l-0.01-0.021l-0.001,0l-0.618-1.07l0.054-0.038l-0.431-0.615l-0.043-0.075
		l-0.006,0.005l-1.54-2.202l-0.055,0.038l-0.354-0.42l-5.436,4.561l0.398,0.472l2.316-1.944l1.092,1.561l-2.541,1.467l1.084,1.874
		l2.046-1.182l0.203,0.437l-1.007,0.367l0.463,1.272l-2.569,0.688l0.915,3.416l1.852-0.495l3.523-0.622l0.163,1.874l-1.501-0.002
		v1.736l-0.21-0.019l-0.199,2.265l0.23,0.02l-0.209,1.177l4.486,0.788l0.25-1.421l0.037-0.146l0.165-1.869h0.022v-0.244l0.012-0.149
		l-0.012-0.001V22.52z M3.533,27.624l-0.34-1.476l-2.984,0.507l1.043,4.001l1.089-0.292l-0.614-2.311L3.533,27.624z M6.458,38.965
		l0.566,0.568l2.354-2.356l-0.565-0.565L6.458,38.965z M16.275,29.048l-1.278,1.077l0.14,0.163l-0.84,0.841l-0.234-0.196l-4.698,5.6
		l2.665,2.237l2.269-2.703l0.025,0.017l0.203-0.291l2.204-2.625l-1.817-1.523l1.979-1.979L16.275,29.048z M34.577,6.486l-2.85,3.395
		l2.667,2.236l1.915-2.282l0.206,0.207l3.008-3.006l-0.469-0.469l0.042-0.048l-2.667-2.238l-0.041,0.049l-0.548-0.384L34.229,6.24
		L34.577,6.486z M12.743,40.131l-1.511,2.617l0.535,0.308l1.511-2.615L12.743,40.131z M30.481,10.643l4.266-7.389l-0.535-0.308
		l-4.265,7.389L30.481,10.643z M17.728,41.024l1.34-3.678l-2.296-0.836l-0.683,1.878l-1.31-0.61l-1.835,3.938l2.165,1.011
		l1.059-2.271L17.728,41.024z M15.949,44.902l2.187,0.585l0.861-3.211l-2.188-0.586L15.949,44.902z M23.128,7.122l2.479,0.216
		l0.31-3.534l0.997,0.175l-0.105,0.395l2.187,0.586l0.063-0.242l0.972,0.354l-0.249,0.535l2.166,1.009l1.836-3.938l-1.791-0.836
		l0.006-0.017l-0.208-0.077L31.618,1.67l-0.006,0.015l-1.584-0.578l0.002-0.01l-0.113-0.029l-0.216-0.08l-0.008,0.02l-1.425-0.384
		l0.004-0.025l-0.301-0.052L27.844,0.51l-0.003,0.012l-1.612-0.284l0.001-0.021l-0.236-0.02l-0.307-0.054l-0.004,0.026L23.753,0
		l-0.002,0.021h-1.74v6.692h1.155L23.128,7.122z M23.668,39.655l0.096,1.094h-1.079l0.062-0.708l-1.409-0.122l0.169-0.961
		l-2.585-0.456l-0.619,3.513l1.747,0.309l-0.303,3.46L22.225,46l0.002-0.02h1.738v-3.707l1.476-0.13l-0.23-2.622L23.668,39.655z
		 M22.19,2.663l-0.18-2.642l-1.797,0.155l0.23,2.622L22.19,2.663z M20.237,5.87l-0.979-5.546l-0.521,0.09l0.979,5.547L20.237,5.87z
		 M26.063,41.963l0.655,3.712l0.521-0.09l-0.654-3.716L26.063,41.963z M8.949,7.869l1.059-0.889l1.16,1.658l1.779-1.247l0.111,0.193
		l1.544-0.891l-0.32-0.555l0.771-0.358l0.726,1.994L17.5,7.146l0.167,0.621l2.314-0.619l-1.783-6.653l-1.577,0.423l-0.018-0.046
		l-0.53,0.193l-0.188,0.05l0.005,0.017l-1.661,0.604l-0.001-0.002l-0.045,0.019l-0.527,0.193l0.017,0.045l-1.343,0.626l-0.058,0.04
		l-1.258,0.724l-0.021-0.03L9.007,4.738L9.005,4.736L8.985,4.753l-0.36,0.252l0.021,0.032L7.429,6.059L8.949,7.869z M34.4,35.002
		l-1.576,1.322l2.186,2.604l-1.279,0.894l-0.157-0.272l-1.35,0.78l-1.976-4.236l0.112-0.045l2.367-1.656l-2.482-3.546l1.12,1.121
		l0.309-0.307l1.169,0.981l1.352-1.609l-1.313-1.101l0.276-0.396l-1.383-0.969l0.155-0.134l0.234-0.405l0.106-0.255l0.444,0.162
		l0.609-1.672l1.851,0.494l0.224-0.834l0.164,0.029l0.252-1.423l-1.496-0.265h0.038v-0.73l0.693-0.061l-0.265-3.031l-0.592,0.052
		l-0.924-2.54l1.322-0.925l-2.022-2.886L32,14.539l-0.558-0.56l-0.948,0.95l-0.855-0.718l1.285-1.835l-0.664-0.468l-1.246,1.78
		l-0.282-0.238l-0.686,0.816l-1.373-0.642l0.162-0.609l0.96,0.35l1.34-3.678l-2.295-0.835l-0.219,0.599l-1.093-0.293l-0.654,2.438
		l-1.17-0.207l-0.033,0.189h-0.902l-0.098-1.114l-1.544,0.135l0.238,2.731l-0.214,0.038l-0.306-0.84l-1.356,0.493l-1.517-3.252
		l-1.897,0.885l0.24,0.514L15.11,12.01l-0.688-0.819l-1.445,1.212l-2.271-2.272l-0.589,0.588l1.831,1.83l-1.128,1.343l-2.314-1.62
		L7.954,13.06l3.449,2.415l0.364-0.518l2.033,1.706l1.264-1.506l2.595,3.091l-0.005,0.007l0.061,0.061l0.307,0.366l0.032-0.025
		l0.431,0.43l0.09,0.131l0.024-0.016l0.167,0.166l-0.048,0.058l-1.44-1.008l-0.507,0.727l-0.769-0.442l-0.173,0.301l-0.932-0.339
		l-0.878,2.414l-0.777-0.068l-0.064,0.729H12.52l-0.002,2.24l-4.79,1.283l-0.212-2.433l-2.042,0.179v-1.271H4.466l0.11-1.247
		l3.829,0.676l0.252-1.424L4.171,18.95l-0.22,1.246l-3.753-0.326L0,22.131l2.139,0.188v1.947h2.457l0.162,1.858L7.304,25.9
		l0.264,0.982l-1.595,0.581l0.733,2.012l-3.518,1.642l0.857,1.837l1.374-0.639l0.345,0.596l-0.789,0.552l1.874,2.68l-1.66,1.393
		l0.396,0.473l4.783-4.017l-1.222-1.746l3.298-1.904l-0.843-1.46l0.956-0.35l0.174,0.372l3.281-1.529l0.477,0.681l-1.878,1.611
		l0.397,0.472l1.835-1.577l0.42,0.601l2.278-1.596l-1.906,4.088l-2.252,3.896l0.536,0.311l1.851-3.209l1.297,0.606l-0.979,3.649
		l2.186,0.586l0.914-3.408l1.141,0.2l0.202-1.142l0.812,0.07l0.014-0.156h0.607v-1.444l0.268-0.022l0.346,1.955l0.521-0.091
		l-0.831-4.713l-0.012-0.139l0.167-0.046l1.423,3.051l0.851-0.397l0.943,1.633l-2.419,0.879l0.397,1.092l-0.66,0.178l1.784,6.652
		l2.312-0.619l-0.511-1.907l0.685-0.25l1.105,2.369l1.695-0.791l1.672,2.897l1.258-0.727l0.022,0.033l1.984-1.388v0.001l0.013-0.012
		l0.37-0.258l-0.022-0.033l1.216-1.021L34.4,35.002z M14.837,25.684l-0.23-0.859l1.271-0.225l0.128,0.539L14.837,25.684z
		 M22.041,19.574l-1.658-2.87l1.172-0.313l0.287,1.627l0.34-0.059L22.041,19.574z M25.484,20.476l0.9-1.93l0.718,0.602l-1.614,1.354
		L25.484,20.476z M27.796,29.545l-1.527-2.644l-0.867,0.481l-0.297-1.114l0.657-0.238l-0.3-0.819l0.401-0.28l1.521,0.867
		l-0.079,0.169l-0.303,0.432l0.698,0.489l-0.107,0.13l-0.588,0.589l1.417,1.415L27.796,29.545z"/>
	<line fill="none" stroke="#DDDEE0" x1="208.141" y1="22.211" x2="185.667" y2="22.211"/>
	<path fill="none" stroke="#DDDEE0" d="M95.838,28.459"/>
	<path fill="none" stroke="#DDDEE0" stroke-width="1.0327" stroke-linecap="round" stroke-linejoin="round" d="M180.059,13.886
		c-2.516-2.828-6.178-4.608-10.26-4.608c-7.584,0-13.732,6.147-13.732,13.729c0,7.583,6.148,13.729,13.732,13.729
		c4.723,0,8.895-2.391,11.365-6.026"/>
	<path fill="none" stroke="#DDDEE0" stroke-linecap="round" stroke-linejoin="round" d="M152.383,36.56l-8.049-11.226
		c4.322,0,7.826-3.503,7.826-7.824c0-4.322-3.504-7.784-7.826-7.784h-14.133v26.47"/>
	<path fill="none" stroke="#DDDEE0" stroke-width="0.996" stroke-linecap="round" stroke-linejoin="round" d="M126.917,36.231
		c0,0-12.689-25.043-12.879-25.414c-0.939-1.854-2.264-1.822-3.156-0.02c-0.094,0.188-12.821,25.434-12.821,25.434"/>
</g>
</svg>
