<?xml version="1.0" encoding="utf-8"?>
<!-- Generator: Adobe Illustrator 16.0.0, SVG Export Plug-In . SVG Version: 6.00 Build 0)  -->
<!DOCTYPE svg PUBLIC "-//W3C//DTD SVG 1.1//EN" "http://www.w3.org/Graphics/SVG/1.1/DTD/svg11.dtd">
<svg version="1.1" id="Layer_1" xmlns="http://www.w3.org/2000/svg" xmlns:xlink="http://www.w3.org/1999/xlink" x="0px" y="0px"
	 width="272.926px" height="62.303px" viewBox="0 0 272.926 62.303" enable-background="new 0 0 272.926 62.303"
	 xml:space="preserve">
<rect width="272.926" height="62.303"/>
<g>
	<path fill="#FFFFFF" d="M118.677,49.541c-0.276,0-0.5-0.224-0.5-0.5l-0.001-34.802c-3.27,4.564-14.333,20.008-15.624,21.819
		c-1.125,1.579-2.071,2.284-3.063,2.284c-0.004,0-0.009,0-0.014,0c-0.995-0.006-1.932-0.721-3.039-2.318
		c-1.248-1.8-12.018-17.28-15.246-21.919v34.936c0,0.276-0.224,0.5-0.5,0.5s-0.5-0.224-0.5-0.5V12.51
		c0-0.218,0.142-0.412,0.351-0.477s0.435,0.013,0.56,0.191c0,0,14.686,21.108,16.157,23.229c0.877,1.266,1.605,1.883,2.224,1.887
		c0.002,0,0.004,0,0.006,0c0.62,0,1.356-0.61,2.25-1.864c1.517-2.129,16.532-23.086,16.532-23.086
		c0.126-0.177,0.353-0.251,0.559-0.185c0.207,0.066,0.347,0.259,0.347,0.476l0.001,36.358
		C119.177,49.317,118.953,49.541,118.677,49.541z"/>
</g>
<g>
	<path fill="#FFFFFF" d="M242.192,49.566c-0.276,0-0.5-0.224-0.5-0.5V13.144c0-0.276,0.224-0.5,0.5-0.5s0.5,0.224,0.5,0.5v35.922
		C242.692,49.342,242.468,49.566,242.192,49.566z"/>
</g>
<g>
	<path fill="#FFFFFF" d="M272.426,49.566c-0.276,0-0.5-0.224-0.5-0.5V13.144c0-0.276,0.224-0.5,0.5-0.5s0.5,0.224,0.5,0.5v35.922
		C272.926,49.342,272.703,49.566,272.426,49.566z"/>
</g>
<path fill="#FFFFFF" d="M48.758,49.572l3.989,3.988l0.797-0.797l-3.989-3.988L48.758,49.572z M10.938,12.348l-2.727-2.289
	l-1.83,2.181l2.73,2.289L10.938,12.348z M49.85,48.713l4.215,3.537l1.828-2.18l-4.216-3.536L49.85,48.713z M51.589,46.268
	l4.67,3.272l0.747-1.067l-4.671-3.27L51.589,46.268z M53.223,44.271l4.711,2.72l0.316-0.548l-4.71-2.719L53.223,44.271z
	 M16.426,22.295l-4.71-2.718l-0.315,0.545l4.709,2.722L16.426,22.295z M10.337,25.473l2.08,0.756l1.213-3.336l-1.073-0.391
	l0.232-0.498l-7.348-3.426l-0.456,0.975l1.937,0.903l-1.173,3.229l-0.793-0.213l-0.333,1.244l5.52,1.479L10.337,25.473z
	 M55.567,38.156l-1.283-0.467l-1.141,3.133l-0.919-0.43l-0.455,0.977l7.349,3.425l0.455-0.974l0.204-0.354l1.214-3.336l0.044-0.3
	l0.333-1.245l-5.522-1.479L55.567,38.156z M62.262,30.5l0.061-0.006l-0.061-0.71v-0.341h-0.031l-0.267-3.055l-0.096-0.187
	l-0.136-0.767l0.09-0.024l-0.753-2.806l0.069-0.025l-0.287-0.79l-0.269-1.004l-0.088,0.022l-0.569-1.563l0.002-0.001l-0.012-0.025
	l-0.284-0.781l-0.069,0.023l-0.745-1.597l0.007-0.004l-0.044-0.077l-0.013-0.028l-0.002,0.001l-0.837-1.449l0.073-0.051
	l-0.583-0.834l-0.059-0.101l-0.008,0.006l-2.086-2.981l-0.074,0.051l-0.479-0.569l-7.362,6.177l0.538,0.639l3.138-2.633l1.48,2.114
	l-3.442,1.987l1.468,2.537l2.772-1.601l0.275,0.591l-1.364,0.498l0.627,1.723l-3.479,0.932l1.239,4.626l2.509-0.671l4.772-0.842
	l0.221,2.537l-2.034-0.002v2.351l-0.285-0.026l-0.27,3.068l0.311,0.027l-0.282,1.593l6.075,1.069l0.339-1.926l0.051-0.197
	l0.223-2.532h0.03v-0.332l0.016-0.201l-0.016-0.001V30.5z M4.785,37.414l-0.461-1.999l-4.042,0.688l1.414,5.418l1.475-0.396
	l-0.832-3.129L4.785,37.414z M8.748,52.775l0.767,0.768l3.188-3.191l-0.766-0.765L8.748,52.775z M22.043,39.344l-1.731,1.457
	l0.189,0.221l-1.137,1.139l-0.317-0.266l-6.363,7.584l3.609,3.031l3.072-3.662l0.034,0.024l0.276-0.394l2.984-3.557l-2.462-2.062
	l2.681-2.682L22.043,39.344z M46.832,8.784l-3.86,4.599l3.612,3.028l2.593-3.091l0.278,0.279l4.074-4.071l-0.635-0.636l0.056-0.065
	l-3.612-3.031l-0.056,0.067l-0.742-0.52l-2.179,3.108L46.832,8.784z M17.26,54.352l-2.047,3.545l0.724,0.418l2.046-3.543
	L17.26,54.352z M41.284,14.414l5.778-10.007L46.338,3.99l-5.777,10.007L41.284,14.414z M24.011,55.564l1.815-4.982l-3.11-1.131
	l-0.925,2.543l-1.774-0.826l-2.486,5.334l2.932,1.369l1.435-3.076L24.011,55.564z M21.601,60.816l2.962,0.793l1.166-4.35
	l-2.963-0.793L21.601,60.816z M31.326,9.646l3.357,0.293l0.419-4.786l1.351,0.237L36.31,5.924l2.961,0.795l0.086-0.328l1.317,0.48
	l-0.338,0.725l2.933,1.367l2.487-5.334L43.33,2.496l0.008-0.023l-0.283-0.104l-0.231-0.107l-0.009,0.02L40.67,1.5l0.004-0.014
	l-0.153-0.04l-0.293-0.108l-0.01,0.026l-1.931-0.519l0.006-0.035l-0.408-0.071l-0.173-0.048l-0.004,0.016l-2.183-0.385l0.002-0.028
	l-0.321-0.028l-0.415-0.072l-0.006,0.035L32.172,0l-0.003,0.029h-2.357v9.064h1.564L31.326,9.646z M32.057,53.71l0.13,1.481h-1.461
	l0.083-0.959l-1.908-0.166l0.229-1.301l-3.502-0.617l-0.838,4.757l2.366,0.418l-0.41,4.687l3.356,0.293l0.003-0.027h2.355v-5.02
	l1.999-0.176l-0.312-3.552L32.057,53.71z M30.055,3.607l-0.243-3.578l-2.435,0.21L27.69,3.79L30.055,3.607z M27.409,7.95
	l-1.325-7.511l-0.706,0.123l1.325,7.512L27.409,7.95z M35.3,56.834l0.887,5.029l0.705-0.123l-0.886-5.032L35.3,56.834z
	 M12.12,10.657l1.434-1.203l1.572,2.244l2.409-1.687l0.151,0.262l2.091-1.207l-0.433-0.752l1.043-0.484l0.983,2.7l2.332-0.851
	l0.226,0.84l3.134-0.838L24.647,0.67l-2.135,0.573L22.488,1.18l-0.719,0.262L21.514,1.51l0.006,0.022L19.271,2.35l-0.002-0.004
	l-0.061,0.026l-0.713,0.261l0.023,0.062l-1.82,0.848L16.62,3.596l-1.703,0.981l-0.029-0.041l-2.689,1.881l-0.002-0.003L12.17,6.438
	l-0.488,0.342l0.029,0.043l-1.649,1.383L12.12,10.657z M46.592,47.407l-2.135,1.79l2.96,3.527l-1.732,1.211l-0.213-0.369
	l-1.828,1.055l-2.675-5.736l0.151-0.061l3.206-2.244l-3.362-4.802l1.517,1.518l0.418-0.415l1.584,1.329l1.83-2.18l-1.778-1.491
	l0.374-0.536l-1.874-1.312l0.21-0.182l0.316-0.548l0.144-0.345l0.601,0.219l0.826-2.266l2.505,0.671l0.304-1.13l0.222,0.039
	l0.341-1.928l-2.026-0.356h0.051v-0.99l0.939-0.083l-0.359-4.104l-0.802,0.07l-1.251-3.439l1.79-1.254l-2.738-3.909l-0.766,0.536
	l-0.756-0.758l-1.284,1.287l-1.159-0.973l1.741-2.486l-0.899-0.633l-1.688,2.41l-0.383-0.322l-0.928,1.105l-1.86-0.869l0.22-0.825
	l1.3,0.474l1.814-4.982l-3.109-1.131l-0.295,0.811l-1.482-0.397l-0.885,3.301l-1.584-0.28L32.06,15.68h-1.222l-0.132-1.509
	l-2.092,0.183l0.323,3.699l-0.29,0.051l-0.414-1.137l-1.837,0.668l-2.054-4.406l-2.57,1.199l0.325,0.696l-1.632,1.142l-0.932-1.109
	l-1.957,1.642L14.5,13.721l-0.798,0.797l2.48,2.479l-1.528,1.819l-3.135-2.194l-0.746,1.067l4.671,3.271l0.493-0.702l2.753,2.311
	l1.712-2.04l3.514,4.187l-0.008,0.008l0.083,0.082l0.416,0.496l0.044-0.035l0.583,0.582l0.123,0.178l0.032-0.022l0.226,0.226
	l-0.065,0.078l-1.949-1.365l-0.688,0.984l-1.041-0.6l-0.234,0.408l-1.261-0.459l-1.19,3.271l-1.052-0.093l-0.087,0.986h-0.891
	l-0.002,3.035l-6.487,1.737l-0.288-3.294L7.415,31.16v-1.721H6.049l0.149-1.689l5.186,0.915l0.342-1.928L5.65,25.666l-0.298,1.686
	l-5.083-0.442L0,29.975l2.897,0.254v2.638h3.327l0.219,2.517l3.45-0.304l0.358,1.331L8.09,37.196l0.993,2.726l-4.764,2.223
	l1.16,2.488l1.861-0.867l0.467,0.808l-1.068,0.748l2.538,3.629l-2.249,1.887l0.537,0.64l6.478-5.44l-1.655-2.365l4.467-2.579
	l-1.142-1.978l1.295-0.472l0.236,0.504l4.443-2.072l0.646,0.921L19.79,40.18l0.537,0.639l2.486-2.137l0.57,0.814l3.086-2.161
	l-2.581,5.536l-3.05,5.279l0.726,0.419l2.507-4.345l1.757,0.82l-1.326,4.943l2.961,0.793l1.237-4.616l1.546,0.272l0.273-1.547
	l1.099,0.097l0.019-0.212h0.823v-1.956l0.363-0.031l0.468,2.647l0.706-0.123l-1.126-6.383l-0.016-0.188l0.227-0.061l1.927,4.131
	l1.153-0.537l1.277,2.211l-3.276,1.191l0.538,1.479l-0.893,0.239l2.416,9.01l3.132-0.838l-0.693-2.584l0.929-0.338l1.497,3.209
	l2.296-1.071l2.265,3.924l1.704-0.984l0.031,0.045l2.686-1.88l0.001,0.001l0.017-0.015l0.501-0.35l-0.03-0.045l1.646-1.383
	L46.592,47.407z M20.096,34.786l-0.312-1.165l1.721-0.303l0.173,0.73L20.096,34.786z M29.852,26.512l-2.245-3.887l1.587-0.424
	l0.389,2.203l0.46-0.08L29.852,26.512z M34.516,27.732l1.219-2.614l0.973,0.815l-2.186,1.834L34.516,27.732z M37.647,40.016
	l-2.068-3.582l-1.175,0.654l-0.403-1.509l0.89-0.323l-0.406-1.111l0.543-0.379l2.059,1.174l-0.106,0.229l-0.41,0.586l0.944,0.661
	l-0.144,0.178l-0.797,0.795l1.918,1.918L37.647,40.016z"/>
<g>
	<rect x="241.987" y="29.583" fill="#FFFFFF" width="30.439" height="1"/>
</g>
<path fill="none" stroke="#DDDEE0" d="M120.323,38.545"/>
<g>
	<path fill="#FFFFFF" d="M220.495,50.272c-10.538,0-19.112-8.573-19.112-19.111s8.574-19.111,19.112-19.111
		c5.452,0,10.659,2.338,14.284,6.415c0.189,0.213,0.171,0.54-0.043,0.729c-0.212,0.189-0.54,0.17-0.729-0.042
		c-3.43-3.857-8.354-6.069-13.513-6.069c-9.969,0-18.079,8.11-18.079,18.079s8.11,18.079,18.079,18.079
		c5.996,0,11.592-2.967,14.968-7.937c0.16-0.236,0.481-0.295,0.717-0.137c0.236,0.16,0.297,0.481,0.137,0.717
		C232.748,47.136,226.833,50.272,220.495,50.272z"/>
</g>
<g>
	<path fill="#FFFFFF" d="M196.909,50.017c-0.155,0-0.309-0.072-0.406-0.208l-10.9-15.203c-0.109-0.152-0.124-0.353-0.038-0.52
		c0.085-0.167,0.257-0.271,0.444-0.271c5.567,0,10.098-4.53,10.098-10.098c0-5.538-4.53-10.043-10.098-10.043h-18.645v35.352
		c0,0.276-0.224,0.5-0.5,0.5s-0.5-0.224-0.5-0.5V13.173c0-0.276,0.224-0.5,0.5-0.5h19.145c6.119,0,11.098,4.954,11.098,11.043
		c0,5.801-4.474,10.577-10.152,11.058l10.361,14.452c0.161,0.225,0.109,0.537-0.115,0.698
		C197.112,49.987,197.01,50.017,196.909,50.017z"/>
</g>
<g>
	<path fill="#FFFFFF" d="M123.332,49.569c-0.075,0-0.152-0.017-0.224-0.053c-0.246-0.124-0.344-0.423-0.221-0.669
		c0.172-0.342,17.238-34.194,17.363-34.445c0.676-1.362,1.583-2.115,2.556-2.12c0.003,0,0.006,0,0.009,0
		c0.694,0,1.705,0.374,2.604,2.143l17.441,34.42c0.124,0.245,0.026,0.545-0.219,0.669c-0.244,0.124-0.545,0.027-0.67-0.219
		l-17.441-34.42c-0.516-1.016-1.141-1.598-1.715-1.598c-0.001,0-0.003,0-0.004,0c-0.567,0.002-1.175,0.574-1.668,1.567
		c-0.126,0.253-16.662,33.054-17.365,34.45C123.689,49.469,123.514,49.569,123.332,49.569z"/>
</g>
</svg>
